Coordinates
version=1
nRows=16
nColumns=36
inDegrees=yes

Units are S.I. units (second, meters, Newtons, ...)
If the header above contains a line with 'inDegrees', this indicates whether rotational values are in degrees (yes) or radians (no).

endheader
time	pelvis_tilt	pelvis_list	pelvis_rotation	pelvis_tx	pelvis_ty	pelvis_tz	hip_flexion_r	hip_adduction_r	hip_rotation_r	knee_angle_r	knee_angle_r_beta	ankle_angle_r	subtalar_angle_r	mtp_angle_r	hip_flexion_l	hip_adduction_l	hip_rotation_l	knee_angle_l	knee_angle_l_beta	ankle_angle_l	subtalar_angle_l	mtp_angle_l	lumbar_extension	lumbar_bending	lumbar_rotation	arm_flex_r	arm_add_r	arm_rot_r	elbow_flex_r	pro_sup_r	arm_flex_l	arm_add_l	arm_rot_l	elbow_flex_l	pro_sup_l
      0.00000000	      3.62554451	     -3.03069639	      5.23427952	      0.46914223	      1.01600510	      0.86401615	    -22.03020122	      5.00742602	     -3.57144408	      3.68227318	      0.06426779	     16.13845860	      1.81578523	     -6.71677469	     29.75687325	     -3.82310825	      0.91484438	     26.08899892	      0.45533893	      9.25611738	     -2.14556745	     -6.71677469	    -19.73541713	      5.80248415	      6.15523415	     13.79724326	    -16.58205071	      9.44952084	     26.97184656	     82.87063578	     -2.19449238	     -3.86410102	     -6.38257696	     19.82846266	     79.18775390
      0.01666670	      5.10162106	     -1.82574845	      5.02115190	      0.47245868	      1.01442085	      0.86398053	    -24.86605678	      3.87446498	     -3.68719881	      3.94113046	      0.06878570	     14.12295437	     -0.72489120	     -6.81262966	     26.89161975	     -2.27806348	      1.55064118	     25.52369220	      0.44547247	      8.61610898	     -3.68372442	     -6.81262966	    -22.82840254	      4.37020088	      5.97177539	     13.60580033	    -16.08455076	      7.88614392	     27.94335193	     82.31554481	     -1.15237910	     -5.00061481	     -4.42746330	     19.74703879	     80.73877880
      0.03333330	      5.53246030	     -0.32640606	      4.62748676	      0.47586207	      1.01445435	      0.86407820	    -26.02286571	      2.23833831	     -3.19211054	      5.52943398	      0.09650683	     14.20246285	     -2.40852564	     -6.86232529	     25.64180939	     -0.44509161	      2.16828843	     26.70452708	      0.46608192	      8.19863828	     -4.43258490	     -6.86232529	    -23.47077546	      2.84678308	      5.58848248	     13.57509106	    -14.92505966	      6.58383083	     26.87505639	     80.89129755	     -0.28564906	     -5.63835643	     -4.09561682	     18.47654448	     80.08032792
      0.05000000	      5.54487822	      0.76521310	      4.58262041	      0.47826634	      1.01307807	      0.86476620	    -25.97360633	      0.94757288	     -2.84339425	      8.43653097	      0.14724524	     13.97544636	     -3.20926026	     -6.88489217	     25.21331844	      0.85718813	      2.71579074	     28.31999328	      0.49427713	      8.70026648	     -5.16704831	     -6.88489217	    -23.64809254	      1.56461456	      5.10430247	     13.31094647	    -13.85601523	      5.13683905	     26.02430080	     79.59570731	      0.19565764	     -6.37933098	     -3.89311672	     18.13005045	     79.13608200
      0.06666670	      5.36402428	      1.45279406	      4.92275633	      0.47938601	      1.01237241	      0.86505116	    -25.43843332	      0.34906568	     -1.99117831	     11.21503641	      0.19573931	     12.33733277	     -4.87949723	     -6.97927056	     25.07131176	      1.83307131	      3.30328309	     30.18218078	      0.52677843	      9.33484554	     -5.87992482	     -6.97927056	    -23.58173926	      0.67844852	      4.85617419	     12.65618913	    -12.98048729	      3.39355569	     25.67989609	     77.26833241	      1.00126134	     -6.99687832	     -3.01652220	     17.48546817	     77.06095274
      0.08333330	      4.94817860	      2.03092758	      5.35758906	      0.47991751	      1.01254171	      0.86393255	    -24.24865368	     -0.15910863	     -1.21830880	     14.20517350	      0.24792705	     10.14138155	     -6.92536207	     -7.02235249	     25.16546770	      2.63795087	      3.60695443	     31.96021330	      0.55781095	      9.84944615	     -6.54818440	     -7.02235249	    -23.32321738	     -0.05573596	      4.30927702	     12.06196615	    -12.25430598	      2.37451812	     25.72914550	     75.94486376	      1.31288863	     -7.60283635	     -2.79969121	     17.93414542	     75.88888621
      0.10000000	      4.32501050	      2.53066361	      5.72519792	      0.48055804	      1.01461347	      0.86116815	    -22.49689065	     -0.70071528	     -0.92717031	     17.35722557	      0.30294074	      7.58099118	     -8.85039344	     -7.06826670	     25.22024788	      3.36570980	      3.85088196	     33.32358919	      0.58160635	     10.28458122	     -7.32227151	     -7.06826670	    -22.72613638	     -0.72205304	      4.03601848	     11.22524494	    -11.58452103	      0.88435160	     25.80676774	     74.52963378	      1.64657536	     -8.03266591	     -2.00826053	     18.35730143	     74.62062996
      0.11666670	      3.73234537	      2.89755745	      5.97235210	      0.48134075	      1.01913491	      0.85792577	    -20.51792012	     -1.17730788	     -0.81955459	     20.55342400	      0.35872492	      4.34234312	    -11.05263250	     -7.14821464	     24.93878796	      3.90932538	      4.04746594	     34.15721698	      0.59615590	     10.71189347	     -7.84546304	     -7.14821464	    -22.16819829	     -1.23848059	      4.01712036	      9.98457048	    -11.03617415	     -1.11759081	     26.71750561	     73.14938429	      2.00511413	     -8.36478478	      0.04728222	     18.79630866	     72.82850720
      0.13333330	      3.15282814	      3.25707145	      6.15241922	      0.48166782	      1.02421274	      0.85510476	    -18.29523683	     -1.73502167	     -1.02340735	     23.88425936	      0.41685897	      0.81262573	    -12.99304181	     -7.15896742	     24.39482261	      4.38761930	      4.14330676	     34.47024957	      0.60161935	     11.14483103	     -8.11847489	     -7.15896742	    -21.56560512	     -1.76022359	      3.51317836	      9.25391762	    -10.55698115	     -1.43256881	     26.80186315	     72.97526669	      2.12900846	     -8.48242118	      0.14827437	     19.29246934	     72.61330371
      0.15000000	      2.44667416	      3.22870212	      6.34895571	      0.48060822	      1.02735397	      0.85290283	    -15.18962040	     -1.95301463	     -0.96408409	     28.18070742	      0.49184613	     -3.39827036	    -15.39660229	     -7.17388925	     23.94752563	      4.44519390	      4.22551580	     34.51636057	      0.60242414	     11.58557212	     -8.08537398	     -7.17388925	    -20.87587814	     -1.86791395	      3.28315700	      8.45331141	    -10.21930214	     -2.15636266	     27.00535739	     72.64576893	      2.39795372	     -8.56337818	      0.29615735	     20.28394876	     72.27967712
      0.16666670	      1.53853114	      3.13417232	      6.49588889	      0.47919492	      1.02808446	      0.85097799	    -10.56173050	     -2.28474335	     -0.73559064	     34.40743744	      0.60052307	     -7.83196028	    -17.74996263	     -7.19653954	     23.58814918	      4.35662881	      3.99226525	     34.16819943	      0.59634758	     12.01905186	     -7.59134770	     -7.19653954	    -20.06999821	     -1.96090868	      3.14898131	      7.59016520	     -9.94328263	     -2.85993769	     27.44972528	     71.37631157	      2.93346969	     -8.64504453	      0.22063365	     21.26383440	     70.93474676
      0.18333330	      0.68760631	      3.04447530	      6.24050454	      0.47898061	      1.02847666	      0.84877452	     -4.66907646	     -2.83919884	     -0.14153951	     42.24308645	      0.73728094	    -11.59836436	    -19.36370498	     -7.23381365	     23.05561338	      4.07392333	      3.22898178	     33.38514713	      0.58268074	     12.21145550	     -7.03379769	     -7.23381365	    -19.50669893	     -2.10231571	      3.03654894	      6.97971376	     -9.76657398	     -3.08390159	     27.83308322	     70.43013018	      3.51173523	     -8.77035449	      0.16328170	     22.32106782	     69.88415995
      0.20000000	     -0.05757381	      2.92436219	      5.70120887	      0.47973658	      1.03027031	      0.84564146	      1.52420675	     -3.39429175	      0.60056227	     49.92134436	      0.87129183	    -13.51726918	    -19.68912646	     -7.29001566	     22.38463641	      3.65896865	      2.26890233	     32.35719533	      0.56473960	     12.16973537	     -6.63388321	     -7.29001566	    -19.13912415	     -2.16626010	      2.99749531	      6.56015613	     -9.71883023	     -2.91801264	     27.86147076	     70.14329081	      4.21388665	     -8.83706620	      0.13099146	     23.12256482	     69.43062756
      0.21666670	     -0.53336685	      2.88493923	      5.21363425	      0.47994312	      1.03326285	      0.84151490	      6.94011141	     -3.94952283	      1.10670830	     55.87358140	      0.97517796	    -13.61906201	    -19.08280799	     -7.37000061	     21.33816797	      3.37207772	      1.45712784	     31.14358898	      0.54355817	     11.86463184	     -6.49045349	     -7.37000061	    -19.05257546	     -2.09193234	      2.77429671	      6.19745380	     -9.69119639	     -3.49659726	     27.95075926	     73.44761673	      5.06987970	     -8.91381332	     -0.47000618	     23.51285711	     72.28760219
      0.23333330	     -0.56358905	      2.88623888	      4.89450343	      0.47818915	      1.03614848	      0.83774236	     11.09755198	     -4.36041759	      1.39506552	     59.57959812	      1.03986015	    -12.51242006	    -18.49104790	     -7.37579090	     19.66489534	      3.19180227	      0.80233982	     29.67439421	      0.51791588	     11.40445011	     -6.43374457	     -7.37579090	    -19.43743181	     -1.84925271	      2.14470866	      6.05165508	     -9.69962465	     -3.52638775	     28.22960528	     73.22411092	      6.06453346	     -9.11565470	     -0.64094606	     23.98770291	     72.05815551
      0.25000000	     -0.74543979	      2.78378690	      4.73348300	      0.47372749	      1.03673592	      0.83598738	     14.92006014	     -4.55192716	      1.46236563	     61.94982525	      1.08122842	    -10.22478754	    -17.75463090	     -7.38032881	     18.14427500	      3.04421601	      0.33041992	     28.05936924	      0.48972838	     10.83515866	     -6.41513783	     -7.38032881	    -19.56031108	     -1.42143447	      1.64844627	      5.99531737	     -9.84519216	     -3.49219353	     28.20757014	     73.16925639	      7.26054488	     -9.29871291	     -0.78343422	     24.35233430	     71.97331265
